<svg width="236" height="153" viewBox="0 0 236 153" fill="none" xmlns="http://www.w3.org/2000/svg">
<path d="M57.5 152C57.5 152 -10 117 1.99996 99.9999C14 83 84.5 141.5 63.5 125C42.5 108.5 46 48.4997 53 36.4998C60 24.4999 79 7.99973 101.5 2.99983C124 -2.00007 154.5 5.49998 165.5 16.9998C176.5 28.4997 187.5 37.9999 188.5 72.4999C189.5 107 180 117 165.5 132C151 147 188.5 109.5 205.5 99.9999C222.5 90.4999 230 92.9999 233 96.4999C236 99.9999 237 108.5 227.5 119.5C218 130.5 188.5 152 188.5 152" stroke="black"/>
</svg>
